<?xml version="1.0" encoding="UTF-8"?>
<svg xmlns="http://www.w3.org/2000/svg" version="1.1" viewBox="615 775 1045 405">
  <defs>
    <style>
      .cls-1 {
        fill: #1d1d1b;
      }
    </style>
  </defs>
  <!-- Generator: Adobe Illustrator 28.6.0, SVG Export Plug-In . SVG Version: 1.2.0 Build 709)  -->
  <g>
    <g id="Capa_1">
      <g>
        <path class="cls-1" d="M787.18,827.94c17.12,0,33.27,2.94,47.46,8.32,14.19,5.38,26.91,13.21,37.18,23.48,10.27,10.27,18.59,22.02,24.46,35.71,5.87,14.19,8.81,29.35,8.81,45.99,0,24.95-6.85,46.97-20.06,65.56-13.21,18.59-30.82,31.8-52.84,39.14l82.19,126.22h-81.21l-73.87-116.93h-68.98v116.93h-71.43v-344.42h168.29ZM816.05,982.04c10.27-9.78,15.17-22.99,15.17-39.14s-4.89-28.87-15.17-38.65c-10.27-9.78-23.97-14.68-40.61-14.68h-85.13v107.14h85.13c16.63,0,30.33-4.89,40.61-14.68Z"/>
        <path class="cls-1" d="M1193.73,1119.03c-8.81,12.23-19.08,22.5-31.31,30.82-12.23,8.81-25.93,15.66-41.09,20.06-15.17,4.89-31.31,7.34-47.94,7.34-20.55,0-39.63-3.42-56.75-10.76-17.61-7.34-32.78-17.12-45.5-29.84-12.72-12.72-22.5-27.89-29.35-45.5-7.34-17.61-10.76-36.69-10.76-57.73s3.42-39.63,10.76-57.24c7.34-17.12,17.12-32.29,29.84-45.01,12.23-12.72,27.4-22.5,45.01-29.84,17.12-7.34,36.2-10.76,56.75-10.76,22.02,0,42.07,3.91,60.17,11.25,17.61,7.83,32.78,18.59,45.5,32.78,12.23,14.19,22.02,30.82,28.86,49.9,6.85,19.08,10.27,40.61,10.27,63.6h-215.26c2.45,21.53,10.76,38.65,23.97,51.86,13.21,13.21,29.35,19.57,48.92,19.57,15.66,0,29.84-3.91,42.56-11.25,12.23-7.34,21.04-17.12,26.42-29.35h68c-3.91,14.68-10.27,27.89-19.08,40.12ZM1123.28,963.45c-13.21-11.25-28.86-16.63-47.46-16.63s-34.25,5.87-46.97,17.12c-12.72,11.25-21.04,26.42-24.46,45.5h143.83c-3.42-19.57-11.74-34.73-24.95-45.99Z"/>
        <path class="cls-1" d="M1257.32,975.19c6.36-17.12,15.17-32.29,26.42-45.01,11.25-12.23,24.95-22.01,40.61-29.35,15.66-6.85,32.78-10.27,50.88-10.27,20.06,0,38.65,3.91,54.79,12.23,16.14,8.32,28.38,20.06,35.71,34.25v-134.05h68v238.74c0,19.57-3.42,37.67-10.27,54.3-6.85,16.63-16.63,30.82-28.86,43.05-12.72,12.23-27.4,21.53-44.52,27.89-17.12,6.85-36.2,10.27-56.75,10.27s-40.61-3.42-58.22-10.76c-18.1-7.34-33.27-17.12-46.48-30.33-13.21-13.21-22.99-28.38-30.33-46.48-7.34-17.61-10.76-36.69-10.76-57.73s3.42-39.63,9.78-56.75ZM1324.35,1065.7c3.42,10.27,8.81,18.59,15.17,25.93,6.36,7.34,13.7,12.72,22.5,16.63,8.81,4.4,18.59,6.36,28.86,6.36s20.06-1.96,28.86-6.36c8.81-3.91,16.63-9.29,22.99-16.63,6.36-7.34,11.25-15.66,14.68-25.93,3.42-9.79,5.38-20.55,5.38-32.29s-1.47-22.5-4.89-32.78c-3.42-9.78-8.32-18.1-14.68-25.44-6.36-7.34-14.19-12.72-22.99-16.63-8.81-3.91-18.59-5.87-29.35-5.87s-20.06,1.96-28.86,5.87c-8.81,4.4-16.14,9.78-22.5,17.12-6.36,7.34-11.74,15.66-15.17,25.44s-5.38,20.55-5.38,32.29,1.96,22.5,5.38,32.29Z"/>
        <path class="cls-1" d="M1592.43,790.26c7.34-7.34,16.14-10.76,26.42-10.76s19.08,3.42,26.42,10.76,10.76,15.66,10.76,25.93-3.42,19.08-10.76,26.42c-7.34,7.34-16.14,11.25-26.42,11.25s-19.08-3.91-26.42-11.25c-7.34-7.34-10.76-16.14-10.76-26.42s3.42-18.59,10.76-25.93ZM1653.59,1172.35h-69.47v-276.9h69.47v276.9Z"/>
      </g>
    </g>
  </g>
</svg>